#N canvas 883 149 750 570 12;
#X obj 76 354 dac~;
#X obj 43 49 noise~;
#X obj 162 105 lop~ 1;
#X obj 77 309 *~;
#X obj 161 186 *~;
#X obj 161 223 *~;
#X obj 161 143 *~ 10;
#X obj 43 101 hip~ 1000;
#X obj 162 49 noise~;
#X msg 303 49 Hissing is not a constant event.;
#X msg 303 81 Modulate the hissing with a random low-frequency signal: use another noise generator through a low pass filter (lop~).;
#X msg 303 164 Hisses come though in loud sudden bursts.;
#X msg 302 199 Modify the dynamics of the low-frequency modulator by taking the square of the modulating signal. It expands the dynamic range of the modulator signal: it makes values close to 1 pass through unaltered but makes lower values much quieter. Because the average level is now lower: amplify the result to get back to a sensible level.;
#X msg 302 323 If we use 4th power and so on - the trick is to balance the makeup gain block with the preamplification.;
#X obj 161 261 *~ 400;
#X connect 1 0 7 0;
#X connect 2 0 6 0;
#X connect 4 0 5 0;
#X connect 4 0 5 1;
#X connect 5 0 14 0;
#X connect 6 0 4 0;
#X connect 6 0 4 1;
#X connect 7 0 3 0;
#X connect 8 0 2 0;
#X connect 14 0 3 1;
