#N canvas 936 195 831 568 12;
#X obj 370 375 dac~;
#X obj 369 122 metro 100;
#X obj 369 158 f 0;
#X obj 406 159 + 1;
#X obj 369 192 mod 2;
#X obj 370 222 sig~;
#X obj 370 284 *~;
#X obj 370 324 *~ 0.2;
#X obj 408 255 osc~ 2500;
#X obj 347 87 tgl 19 0 empty empty empty 0 -10 0 12 #fcfcfc #000000 #000000 0 1;
#X connect 1 0 2 0;
#X connect 2 0 3 0;
#X connect 2 0 4 0;
#X connect 3 0 2 1;
#X connect 4 0 5 0;
#X connect 5 0 6 0;
#X connect 6 0 7 0;
#X connect 7 0 0 0;
#X connect 7 0 0 1;
#X connect 8 0 6 1;
#X connect 9 0 1 0;
