#N canvas 819 244 892 714 12;
#X obj 370 387 dac~;
#X obj 369 158 f 0;
#X obj 406 159 + 1;
#X obj 369 192 mod 2;
#X obj 370 222 sig~;
#X obj 370 284 *~;
#X obj 369 321 *~ 0.2;
#X obj 345 98 tgl 19 0 empty empty empty 0 -10 0 12 #fcfcfc #000000 #000000 0 1;
#X obj 408 255 osc~ 1950;
#X obj 369 122 metro 540;
#X connect 1 0 2 0;
#X connect 1 0 3 0;
#X connect 2 0 1 1;
#X connect 3 0 4 0;
#X connect 4 0 5 0;
#X connect 5 0 6 0;
#X connect 6 0 0 0;
#X connect 7 0 9 0;
#X connect 8 0 5 1;
#X connect 9 0 1 0;
