#N canvas 727 195 798 658 12;
#X obj 84 87 +~;
#X obj 84 161 *~ 0.1;
#X obj 84 218 dac~;
#X obj 106 33 osc~ 350;
#X obj 173 54 osc~ 440;
#X msg 163 192 simple dial tone;
#X msg 232 104 1;
#X msg 232 139 0;
#X obj 84 125 *~;
#X connect 0 0 8 0;
#X connect 1 0 2 0;
#X connect 1 0 2 1;
#X connect 3 0 0 0;
#X connect 4 0 0 1;
#X connect 6 0 8 1;
#X connect 7 0 8 1;
#X connect 8 0 1 0;
