#N canvas 567 229 1061 615 12;
#X msg 355 12 1 \, 0 3000;
#X obj 354 36 t b a;
#X obj 386 64 line;
#X obj 431 85 * 300;
#X obj 354 99 metro 500;
#X obj 385 129 * 200;
#X obj 354 149 f;
#X msg 353 174 1 1 0 \, 0 \$1 1;
#X obj 353 199 vline~;
#X obj 295 240 *~;
#X obj 322 273 *~;
#X obj 415 392 *~;
#X obj 340 330 *~;
#X obj 553 261 sig~;
#X obj 340 366 +~ 80;
#X obj 406 345 osc~ 120;
#X obj 487 333 *~ 70;
#X obj 340 411 +~, f 4;
#X obj 343 459 osc~;
#X obj 289 478 *~;
#X obj 538 479 *~;
#X obj 537 504 *~ 0.2;
#X obj 392 302 *~ 130;
#X obj 294 10 bng 19 250 50 0 empty empty empty 0 -10 0 12 #fcfcfc #000000 #000000;
#X msg 608 16 - a decaying pattern of events;
#X msg 608 98 - the main parameter is the height of the ball: determine the time to fall and the final velocity;
#X msg 608 49 - event frequency increases while the spectrum \, duration \, and total amplitude of each event diminishes;
#X msg 608 144 - the decrease in bounce period is roughly linear \, a metronome can be used to make bounce events that increase in frequency;
#X obj 538 532 dac~;
#X connect 0 0 1 0;
#X connect 1 0 4 0;
#X connect 1 1 2 0;
#X connect 2 0 3 0;
#X connect 2 0 5 0;
#X connect 2 0 13 0;
#X connect 4 0 6 0;
#X connect 6 0 7 0;
#X connect 7 0 8 0;
#X connect 8 0 9 0;
#X connect 8 0 9 1;
#X connect 9 0 10 0;
#X connect 9 0 10 1;
#X connect 9 0 19 0;
#X connect 10 0 12 0;
#X connect 11 0 17 1;
#X connect 12 0 14 0;
#X connect 13 0 22 0;
#X connect 13 0 16 0;
#X connect 13 0 20 1;
#X connect 14 0 17 0;
#X connect 15 0 11 0;
#X connect 16 0 11 1;
#X connect 17 0 18 0;
#X connect 18 0 19 1;
#X connect 19 0 20 0;
#X connect 20 0 21 0;
#X connect 21 0 28 0;
#X connect 21 0 28 1;
#X connect 22 0 12 1;
#X connect 23 0 0 0;
